<?xml version="1.0" encoding="utf-8"?>
<!-- Generator: Adobe Illustrator 19.0.0, SVG Export Plug-In . SVG Version: 6.00 Build 0)  -->
<svg version="1.1" id="Layer_1" xmlns="http://www.w3.org/2000/svg" xmlns:xlink="http://www.w3.org/1999/xlink" x="0px" y="0px"
	 viewBox="0 0 100 60" style="enable-background:new 0 0 100 60;" xml:space="preserve">
<style type="text/css">
	.st0{fill:#FFFFFF;stroke:#3D5A9B;stroke-width:3;stroke-miterlimit:10;}
	.st1{fill:#A6B6D1;}
</style>
<path id="XMLID_26_" class="st0" d="M93.6,58.3H6.3c-2.6,0-4.7-2.1-4.7-4.7V6.2c0-2.6,2.1-4.7,4.7-4.7h87.3c2.6,0,4.7,2.1,4.7,4.7
	v47.5C98.3,56.2,96.2,58.3,93.6,58.3z"/>
<path id="XMLID_8_" class="st1" d="M84,35.9H69.6c-1.8,0-3.3-1.5-3.3-3.3V19.4c0-1.8,1.5-3.3,3.3-3.3H84c1.8,0,3.3,1.5,3.3,3.3v13.2
	C87.3,34.4,85.8,35.9,84,35.9z"/>
<path id="XMLID_3_" class="st1" d="M52.3,27.7H8.8c-0.7,0-1.2-0.6-1.2-1.2v-1c0-0.7,0.6-1.2,1.2-1.2h43.5c0.7,0,1.2,0.6,1.2,1.2v1
	C53.5,27.1,53,27.7,52.3,27.7z"/>
<path id="XMLID_5_" class="st1" d="M52.3,19.2H8.8c-0.7,0-1.3-0.6-1.3-1.3v-1c0-0.7,0.6-1.3,1.3-1.3h43.5c0.7,0,1.3,0.6,1.3,1.3v1
	C53.5,18.7,53,19.2,52.3,19.2z"/>
<path id="XMLID_7_" class="st1" d="M52.3,44.3H8.8c-0.7,0-1.3-0.6-1.3-1.3v-1c0-0.7,0.6-1.3,1.3-1.3h43.5c0.7,0,1.3,0.6,1.3,1.3v1
	C53.5,43.7,53,44.3,52.3,44.3z"/>
<path id="XMLID_6_" class="st1" d="M52.3,35.8H8.8c-0.7,0-1.3-0.6-1.3-1.3v-1c0-0.7,0.6-1.3,1.3-1.3h43.5c0.7,0,1.3,0.6,1.3,1.3v1
	C53.5,35.2,53,35.8,52.3,35.8z"/>
</svg>
